<svg version="1.1" id="Layer_1" xmlns="http://www.w3.org/2000/svg" xmlns:xlink="http://www.w3.org/1999/xlink" x="0px" y="0px"
	 width="100%" viewBox="0 0 1200 1200" enable-background="new 0 0 1200 1200" xml:space="preserve">
<path fill="#393E46" opacity="1.000000" stroke="none" 
	d="
M830.000000,1201.000000 
	C553.333313,1201.000000 277.166656,1201.000000 1.000000,1201.000000 
	C1.000000,801.000000 1.000000,401.000000 1.000000,1.000000 
	C401.000000,1.000000 801.000000,1.000000 1201.000000,1.000000 
	C1201.000000,401.000000 1201.000000,801.000000 1201.000000,1201.000000 
	C1077.500000,1201.000000 954.000000,1201.000000 830.000000,1201.000000 
M898.705078,398.290070 
	C896.429321,399.547424 894.153625,400.804779 891.276367,401.784332 
	C875.774109,408.855957 860.192078,415.759460 844.801514,423.066315 
	C836.421997,427.044556 828.367493,431.707489 820.288025,434.998199 
	C820.298523,379.026703 820.292786,323.055145 820.370667,267.083740 
	C820.374329,264.474701 819.740601,263.058319 817.263733,261.696442 
	C790.953369,247.229950 764.750000,232.568832 738.514526,217.966095 
	C695.185364,193.848984 651.835083,169.769470 608.566589,145.544052 
	C605.674316,143.924713 603.702209,144.107849 600.898865,145.671158 
	C531.386841,184.434448 461.822144,223.103333 392.216583,261.698334 
	C389.829071,263.022156 389.049744,264.418732 389.055084,267.092712 
	C389.154877,317.036255 389.149597,366.980011 388.766083,417.542969 
	C382.166199,420.587311 375.367188,423.266754 369.001587,426.740448 
	C344.040314,440.361847 319.190613,454.188690 294.356781,468.041931 
	C287.490143,471.872375 280.821777,476.058258 273.636139,480.229706 
	C273.636139,480.229706 273.229828,480.426453 272.544952,480.494507 
	C270.403961,481.692932 268.262970,482.891357 265.544617,484.588531 
	C264.779144,486.372559 263.375305,488.147583 263.350037,489.942047 
	C263.162231,503.270599 263.285126,516.603149 263.238159,529.934143 
	C263.185974,544.756226 263.057251,559.577942 262.276093,574.337097 
	C261.509155,574.654602 260.702118,574.899841 259.981171,575.300171 
	C242.106583,585.225891 224.235870,595.158630 206.375977,605.110840 
	C195.647400,611.089172 184.938263,617.102478 173.529846,623.486572 
	C182.607651,628.574951 190.981323,633.307739 199.391052,637.975525 
	C230.931854,655.481995 262.503510,672.932983 294.027100,690.470398 
	C324.531738,707.440979 355.002899,724.471802 385.450012,741.545288 
	C387.998810,742.974487 389.924805,743.129883 392.676147,741.572266 
	C413.652466,729.696655 434.762573,718.057373 455.835968,706.353394 
	C498.269806,682.786011 540.711304,659.232422 583.137817,635.651794 
	C590.067139,631.800537 596.935974,627.840576 604.230469,623.705444 
	C602.536133,622.622986 601.456787,621.851135 600.304932,621.209656 
	C574.322021,606.739075 548.339417,592.267944 522.338623,577.829712 
	C507.970032,569.850891 493.568268,561.931763 479.039429,553.058899 
	C479.078644,541.324768 479.117859,529.590576 479.799225,518.113708 
	C480.684570,518.574768 481.581390,519.015259 482.453644,519.499878 
	C521.659485,541.285278 560.920654,562.972778 599.983154,585.012268 
	C604.129517,587.351624 606.883545,586.524048 610.339661,584.591064 
	C638.903809,568.615295 667.515991,552.725403 696.080872,536.750916 
	C711.435669,528.164001 726.726013,519.461914 742.461975,511.236267 
	C742.353516,523.405945 742.245117,535.575684 741.376282,547.785583 
	C740.902710,547.944641 740.390137,548.033630 739.961121,548.272644 
	C699.472778,570.829468 658.987671,593.391968 618.513062,615.973328 
	C614.180969,618.390259 609.911987,620.920532 605.115112,623.685608 
	C617.826599,630.790466 629.716431,637.448486 641.617920,644.085632 
	C669.639648,659.712646 697.657532,675.346680 725.694580,690.946167 
	C756.347900,708.001160 787.007568,725.044861 817.730347,741.973816 
	C819.057068,742.704834 821.416504,742.914246 822.669250,742.226746 
	C846.864014,728.950012 870.973511,715.517761 895.083862,702.087585 
	C931.971313,681.540344 968.848145,660.974182 1005.724609,640.407227 
	C1015.549744,634.927490 1025.357178,629.415771 1036.004028,623.453125 
	C1009.514343,608.709656 983.843506,594.421936 958.079895,579.174805 
	C958.064514,568.585999 958.068787,557.997070 958.029846,547.408325 
	C957.947205,524.916992 957.841980,502.425812 957.709229,479.262421 
	C953.397034,472.384033 949.141052,465.469604 944.761841,458.634125 
	C932.054810,438.799286 919.271179,419.013428 906.596008,399.158295 
	C905.044006,396.727142 903.642273,395.072723 900.410889,397.437286 
	C900.088074,397.659454 899.765198,397.881622 898.705078,398.290070 
M485.995331,866.500000 
	C485.995331,881.584229 485.995331,896.668518 485.995331,911.600342 
	C492.693298,911.600342 498.742737,911.600342 505.477600,911.600342 
	C504.692657,891.572693 503.924652,871.976135 503.156616,852.379639 
	C503.332184,852.345764 503.507721,852.311890 503.683289,852.278015 
	C507.095551,864.468994 510.507812,876.659973 513.942139,888.929810 
	C515.647583,888.929810 516.840881,888.739502 517.951355,888.962280 
	C523.211365,890.017517 525.427063,887.506653 526.267395,882.594360 
	C526.879395,879.017029 528.122437,875.543762 529.140198,872.040405 
	C531.141907,865.150330 533.182556,858.271667 535.207092,851.388245 
	C535.342651,851.453796 535.478149,851.519348 535.613708,851.584900 
	C534.875122,871.673035 534.136475,891.761230 533.400879,911.767151 
	C540.697449,911.767151 546.642395,911.767151 552.673462,911.767151 
	C552.673462,882.508545 552.673462,853.488525 552.673462,824.344116 
	C544.764343,824.344116 537.187317,824.344116 529.330566,824.344116 
	C526.097229,837.448120 522.897583,850.415894 519.492065,864.217712 
	C516.051880,850.264648 512.848022,837.270142 509.675873,824.404175 
	C501.559204,824.404175 493.990692,824.404175 485.995331,824.404175 
	C485.995331,838.272522 485.995331,851.886292 485.995331,866.500000 
M714.812683,887.152100 
	C718.046570,877.142395 718.457153,866.896790 716.858643,856.609070 
	C714.408325,840.838989 705.794922,829.403320 689.996948,826.380859 
	C676.998962,823.894104 663.452576,824.273621 650.113892,823.380432 
	C650.113892,853.735229 650.113892,882.748535 650.113892,911.917603 
	C660.632874,911.917603 670.820129,912.558838 680.895325,911.769592 
	C696.592224,910.540039 708.753052,903.500122 714.812683,887.152100 
M592.900635,894.978577 
	C586.960754,892.725891 581.020813,890.473206 574.551208,888.019653 
	C571.764954,891.924744 568.400330,896.640442 565.075256,901.300720 
	C576.215942,915.435730 607.230713,917.969971 623.144409,906.106140 
	C637.017090,895.763916 635.247925,877.908691 619.696594,870.134827 
	C618.079407,869.326416 616.425171,868.592102 614.486267,867.681702 
	C616.479248,866.452087 618.097656,865.317078 619.833069,864.404602 
	C633.661499,857.133667 632.089783,839.033386 620.698547,831.249390 
	C610.615540,824.359192 599.204834,823.709351 587.639160,825.857788 
	C580.111755,827.255981 573.273865,830.532532 567.230103,836.125732 
	C571.140564,840.847595 574.804260,845.271484 578.541077,849.783691 
	C580.526611,848.498047 582.180603,847.416565 583.844910,846.351379 
	C588.692139,843.248901 594.128296,841.916016 599.550171,843.463013 
	C602.102539,844.191223 605.020325,846.880188 605.860596,849.335144 
	C606.524841,851.275696 604.699402,854.536621 603.159607,856.598938 
	C602.133545,857.973206 599.732117,858.591675 597.829773,858.984619 
	C593.824890,859.811829 589.743347,860.268372 585.693726,860.876953 
	C585.693726,866.156494 585.693726,871.217468 585.693726,875.860901 
	C591.993469,876.967407 597.922913,877.699768 603.679260,879.128967 
	C607.498230,880.077209 609.728516,883.583618 608.799438,887.167969 
	C608.141907,889.704590 605.477966,892.395569 603.015564,893.607361 
	C600.346436,894.921082 596.872314,894.599243 592.900635,894.978577 
z"/>
<path fill="#E2E2E2" opacity="1.000000" stroke="none" 
	d="
M389.166321,416.923706 
	C389.149597,366.980011 389.154877,317.036255 389.055084,267.092712 
	C389.049744,264.418732 389.829071,263.022156 392.216583,261.698334 
	C461.822144,223.103333 531.386841,184.434448 600.898865,145.671158 
	C603.702209,144.107849 605.674316,143.924713 608.566589,145.544052 
	C651.835083,169.769470 695.185364,193.848984 738.514526,217.966095 
	C764.750000,232.568832 790.953369,247.229950 817.263733,261.696442 
	C819.740601,263.058319 820.374329,264.474701 820.370667,267.083740 
	C820.292786,323.055145 820.298523,379.026703 820.041992,435.664093 
	C811.572754,440.940033 803.413208,445.671722 795.066895,450.047211 
	C793.575745,450.828979 790.935730,450.825317 789.460815,450.020782 
	C768.270203,438.461670 747.195801,426.689789 726.074341,415.003448 
	C721.871521,412.678101 717.588989,410.496918 712.806824,407.965302 
	C712.806824,422.365753 712.834534,435.817200 712.775574,449.268280 
	C712.767212,451.182098 712.337769,453.094116 712.041443,454.545258 
	C712.181396,437.337433 712.460938,420.591797 712.565186,403.845062 
	C712.694641,383.047821 712.722046,362.249481 712.639099,341.452209 
	C712.632935,339.902679 711.386353,338.358063 710.898926,336.513489 
	C710.818848,334.833954 710.936646,333.211212 710.236877,332.106232 
	C699.844971,315.697266 689.354309,299.350708 678.866882,283.002380 
	C672.164795,272.555023 665.429443,262.128937 658.900208,251.990143 
	C604.246155,272.468536 555.442688,303.243408 504.831543,331.216858 
	C497.444275,334.051361 496.693329,339.464508 496.835358,346.315613 
	C497.261841,366.887939 496.971649,387.475098 496.602417,408.031555 
	C479.835052,417.019531 463.426270,426.032471 446.756653,434.830841 
	C439.469025,423.882751 432.442230,413.149231 425.399170,402.390808 
	C420.875397,404.363831 416.711090,406.180054 412.153687,407.989532 
	C410.831848,408.335236 409.903198,408.687714 408.983032,409.010040 
	C408.991577,408.979919 409.049225,409.004303 408.681396,409.032898 
	C401.931122,411.682220 395.548706,414.302948 389.166321,416.923706 
z"/>
<path fill="#00ACB4" opacity="1.000000" stroke="none" 
	d="
M958.172729,580.134277 
	C983.843506,594.421936 1009.514343,608.709656 1036.004028,623.453125 
	C1025.357178,629.415771 1015.549744,634.927490 1005.724609,640.407227 
	C968.848145,660.974182 931.971313,681.540344 895.083862,702.087585 
	C870.973511,715.517761 846.864014,728.950012 822.669250,742.226746 
	C821.416504,742.914246 819.057068,742.704834 817.730347,741.973816 
	C787.007568,725.044861 756.347900,708.001160 725.694580,690.946167 
	C697.657532,675.346680 669.639648,659.712646 641.617920,644.085632 
	C629.716431,637.448486 617.826599,630.790466 605.115112,623.685608 
	C609.911987,620.920532 614.180969,618.390259 618.513062,615.973328 
	C658.987671,593.391968 699.472778,570.829468 739.961121,548.272644 
	C740.390137,548.033630 740.902710,547.944641 741.983887,547.911865 
	C742.663757,562.141541 743.166504,576.261719 742.618652,590.340881 
	C742.361206,596.955566 743.953979,600.567688 750.101685,603.891907 
	C781.975098,621.126343 813.507874,638.990479 845.191284,656.577515 
	C846.999634,657.581421 849.091309,658.074951 851.390381,658.742065 
	C886.220886,639.487061 920.729675,620.327148 955.140869,600.993652 
	C956.561890,600.195251 957.743774,597.820923 957.875488,596.092407 
	C958.278809,590.796204 958.115662,585.456848 958.172729,580.134277 
z"/>
<path fill="#00ACB4" opacity="1.000000" stroke="none" 
	d="
M479.181488,553.985718 
	C493.568268,561.931763 507.970032,569.850891 522.338623,577.829712 
	C548.339417,592.267944 574.322021,606.739075 600.304932,621.209656 
	C601.456787,621.851135 602.536133,622.622986 604.230469,623.705444 
	C596.935974,627.840576 590.067139,631.800537 583.137817,635.651794 
	C540.711304,659.232422 498.269806,682.786011 455.835968,706.353394 
	C434.762573,718.057373 413.652466,729.696655 392.676147,741.572266 
	C389.924805,743.129883 387.998810,742.974487 385.450012,741.545288 
	C355.002899,724.471802 324.531738,707.440979 294.027100,690.470398 
	C262.503510,672.932983 230.931854,655.481995 199.391052,637.975525 
	C190.981323,633.307739 182.607651,628.574951 173.529846,623.486572 
	C184.938263,617.102478 195.647400,611.089172 206.375977,605.110840 
	C224.235870,595.158630 242.106583,585.225891 259.981171,575.300171 
	C260.702118,574.899841 261.509155,574.654602 262.656921,574.804077 
	C263.051666,580.585388 263.076904,585.899780 263.077240,591.214172 
	C263.078094,605.967651 263.226562,605.686462 276.278992,612.767822 
	C298.145203,624.631042 319.770721,636.937134 341.547180,648.966980 
	C351.317017,654.364014 361.206787,659.543945 371.401123,664.857910 
	C381.308472,659.646545 390.871063,654.425354 400.402374,649.147705 
	C425.269745,635.378174 450.108185,621.556213 475.003357,607.837219 
	C477.874207,606.255066 479.171936,604.465576 479.128601,600.926331 
	C478.937103,585.282043 479.128601,569.632996 479.181488,553.985718 
z"/>
<path fill="#F6F6F6" opacity="1.000000" stroke="none" 
	d="
M479.110474,553.522339 
	C479.128601,569.632996 478.937103,585.282043 479.128601,600.926331 
	C479.171936,604.465576 477.874207,606.255066 475.003357,607.837219 
	C450.108185,621.556213 425.269745,635.378174 400.402374,649.147705 
	C390.871063,654.425354 381.308472,659.646545 371.398773,664.400940 
	C371.147491,625.960876 371.292114,588.013245 371.287750,550.065674 
	C371.287476,547.612244 370.716370,544.796753 369.437286,542.761475 
	C356.276733,521.820557 342.974915,500.967529 329.572723,480.180054 
	C325.637909,474.076965 321.259521,468.259827 317.378113,462.112610 
	C344.185944,446.956940 370.725220,432.044586 397.187927,416.997467 
	C401.320557,414.647614 405.104218,411.684082 409.049225,409.004303 
	C409.049225,409.004303 408.991577,408.979919 409.362854,409.132599 
	C410.671661,408.855621 411.609222,408.425934 412.546814,407.996277 
	C416.711090,406.180054 420.875397,404.363831 425.399170,402.390808 
	C432.442230,413.149231 439.469025,423.882751 446.803040,435.170868 
	C456.629974,450.611389 466.300476,465.404724 475.547394,480.458282 
	C477.494659,483.628387 478.627838,487.709839 478.848022,491.447205 
	C479.365234,500.225891 479.103546,509.050446 479.157074,517.856445 
	C479.117859,529.590576 479.078644,541.324768 479.110474,553.522339 
z"/>
<path fill="#01ABB3" opacity="1.000000" stroke="none" 
	d="
M479.478149,517.985107 
	C479.103546,509.050446 479.365234,500.225891 478.848022,491.447205 
	C478.627838,487.709839 477.494659,483.628387 475.547394,480.458282 
	C466.300476,465.404724 456.629974,450.611389 447.063904,435.385406 
	C463.426270,426.032471 479.835052,417.019531 496.617035,408.497070 
	C496.992889,419.627686 497.669800,430.322784 496.807739,440.892395 
	C495.952637,451.376434 497.975037,459.112793 509.220856,462.143585 
	C511.046936,462.635712 512.595520,464.115875 514.308899,465.074005 
	C536.720337,477.606995 559.105408,490.187775 581.572937,502.619476 
	C589.292419,506.890747 597.222107,510.781982 605.407471,514.851807 
	C635.900513,498.140747 666.060059,481.457458 696.166504,464.678833 
	C701.590759,461.655884 706.796570,458.240906 712.103271,455.006958 
	C712.337769,453.094116 712.767212,451.182098 712.775574,449.268280 
	C712.834534,435.817200 712.806824,422.365753 712.806824,407.965302 
	C717.588989,410.496918 721.871521,412.678101 726.074341,415.003448 
	C747.195801,426.689789 768.270203,438.461670 789.460815,450.020782 
	C790.935730,450.825317 793.575745,450.828979 795.066895,450.047211 
	C803.413208,445.671722 811.572754,440.940033 819.981201,436.195801 
	C828.367493,431.707489 836.421997,427.044556 844.801514,423.066315 
	C860.192078,415.759460 875.774109,408.855957 891.464417,402.152466 
	C891.309998,402.877441 891.029480,403.345825 890.616211,403.575226 
	C871.452271,414.214478 852.282288,424.842773 833.100647,435.450165 
	C820.766602,442.270813 808.413635,449.057281 795.734436,456.013977 
	C779.678528,463.226288 764.049438,470.501984 748.176697,477.200134 
	C743.764526,479.062012 742.358643,481.108673 742.566711,485.892365 
	C742.927002,494.175629 742.273682,502.502960 742.045471,510.811829 
	C726.726013,519.461914 711.435669,528.164001 696.080872,536.750916 
	C667.515991,552.725403 638.903809,568.615295 610.339661,584.591064 
	C606.883545,586.524048 604.129517,587.351624 599.983154,585.012268 
	C560.920654,562.972778 521.659485,541.285278 482.453644,519.499878 
	C481.581390,519.015259 480.684570,518.574768 479.478149,517.985107 
z"/>
<path fill="#B6E4FC" opacity="1.000000" stroke="none" 
	d="
M742.253723,511.024048 
	C742.273682,502.502960 742.927002,494.175629 742.566711,485.892365 
	C742.358643,481.108673 743.764526,479.062012 748.176697,477.200134 
	C764.049438,470.501984 779.678528,463.226288 796.020996,456.206970 
	C811.562317,479.476379 826.444763,502.731995 841.434631,525.918152 
	C844.402283,530.508484 847.782776,534.831787 850.988892,539.729126 
	C851.020264,579.722046 851.035706,619.263977 851.051086,658.805969 
	C849.091309,658.074951 846.999634,657.581421 845.191284,656.577515 
	C813.507874,638.990479 781.975098,621.126343 750.101685,603.891907 
	C743.953979,600.567688 742.361206,596.955566 742.618652,590.340881 
	C743.166504,576.261719 742.663757,562.141541 742.364136,547.891785 
	C742.245117,535.575684 742.353516,523.405945 742.253723,511.024048 
z"/>
<path fill="#B6E3FB" opacity="1.000000" stroke="none" 
	d="
M317.084412,462.311646 
	C321.259521,468.259827 325.637909,474.076965 329.572723,480.180054 
	C342.974915,500.967529 356.276733,521.820557 369.437286,542.761475 
	C370.716370,544.796753 371.287476,547.612244 371.287750,550.065674 
	C371.292114,588.013245 371.147491,625.960876 371.039795,664.365417 
	C361.206787,659.543945 351.317017,654.364014 341.547180,648.966980 
	C319.770721,636.937134 298.145203,624.631042 276.278992,612.767822 
	C263.226562,605.686462 263.078094,605.967651 263.077240,591.214172 
	C263.076904,585.899780 263.051666,580.585388 262.999817,574.835449 
	C263.057251,559.577942 263.185974,544.756226 263.238159,529.934143 
	C263.285126,516.603149 263.162231,503.270599 263.350037,489.942047 
	C263.375305,488.147583 264.779144,486.372559 266.193176,484.323853 
	C268.971100,482.848267 271.100464,481.637360 273.229828,480.426453 
	C273.229828,480.426453 273.636139,480.229706 274.240082,480.168213 
	C276.554871,479.565948 278.327820,479.169067 279.966614,478.461426 
	C292.354034,473.112488 304.715118,467.702576 317.084412,462.311646 
z"/>
<path fill="#FEFFFF" opacity="1.000000" stroke="none" 
	d="
M851.390381,658.742065 
	C851.035706,619.263977 851.020264,579.722046 851.310913,539.555298 
	C886.993347,519.265259 922.369690,499.599884 957.746033,479.934540 
	C957.841980,502.425812 957.947205,524.916992 958.029846,547.408325 
	C958.068787,557.997070 958.064514,568.585999 958.126343,579.654541 
	C958.115662,585.456848 958.278809,590.796204 957.875488,596.092407 
	C957.743774,597.820923 956.561890,600.195251 955.140869,600.993652 
	C920.729675,620.327148 886.220886,639.487061 851.390381,658.742065 
z"/>
<path fill="#00ADB5" opacity="1.000000" stroke="none" 
	d="
M957.727661,479.598480 
	C922.369690,499.599884 886.993347,519.265259 851.294983,539.104370 
	C847.782776,534.831787 844.402283,530.508484 841.434631,525.918152 
	C826.444763,502.731995 811.562317,479.476379 796.355713,456.052094 
	C808.413635,449.057281 820.766602,442.270813 833.100647,435.450165 
	C852.282288,424.842773 871.452271,414.214478 890.616211,403.575226 
	C891.029480,403.345825 891.309998,402.877441 891.765198,402.291321 
	C894.153625,400.804779 896.429321,399.547424 899.260254,398.140198 
	C900.157898,397.810913 900.500366,397.631500 900.842834,397.452087 
	C903.642273,395.072723 905.044006,396.727142 906.596008,399.158295 
	C919.271179,419.013428 932.054810,438.799286 944.761841,458.634125 
	C949.141052,465.469604 953.397034,472.384033 957.727661,479.598480 
z"/>
<path fill="#ECECEC" opacity="1.000000" stroke="none" 
	d="
M485.995331,866.000000 
	C485.995331,851.886292 485.995331,838.272522 485.995331,824.404175 
	C493.990692,824.404175 501.559204,824.404175 509.675873,824.404175 
	C512.848022,837.270142 516.051880,850.264648 519.492065,864.217712 
	C522.897583,850.415894 526.097229,837.448120 529.330566,824.344116 
	C537.187317,824.344116 544.764343,824.344116 552.673462,824.344116 
	C552.673462,853.488525 552.673462,882.508545 552.673462,911.767151 
	C546.642395,911.767151 540.697449,911.767151 533.400879,911.767151 
	C534.136475,891.761230 534.875122,871.673035 535.613708,851.584900 
	C535.478149,851.519348 535.342651,851.453796 535.207092,851.388245 
	C533.182556,858.271667 531.141907,865.150330 529.140198,872.040405 
	C528.122437,875.543762 526.879395,879.017029 526.267395,882.594360 
	C525.427063,887.506653 523.211365,890.017517 517.951355,888.962280 
	C516.840881,888.739502 515.647583,888.929810 513.942139,888.929810 
	C510.507812,876.659973 507.095551,864.468994 503.683289,852.278015 
	C503.507721,852.311890 503.332184,852.345764 503.156616,852.379639 
	C503.924652,871.976135 504.692657,891.572693 505.477600,911.600342 
	C498.742737,911.600342 492.693298,911.600342 485.995331,911.600342 
	C485.995331,896.668518 485.995331,881.584229 485.995331,866.000000 
M502.749359,848.923035 
	C502.670074,848.638428 502.590790,848.353821 502.413513,847.717468 
	C502.413513,848.799927 502.413513,849.527161 502.413513,850.879517 
	C502.636017,849.970093 502.706390,849.682495 502.749359,848.923035 
z"/>
<path fill="#ECECEC" opacity="1.000000" stroke="none" 
	d="
M714.666260,887.518066 
	C708.753052,903.500122 696.592224,910.540039 680.895325,911.769592 
	C670.820129,912.558838 660.632874,911.917603 650.113892,911.917603 
	C650.113892,882.748535 650.113892,853.735229 650.113892,823.380432 
	C663.452576,824.273621 676.998962,823.894104 689.996948,826.380859 
	C705.794922,829.403320 714.408325,840.838989 716.858643,856.609070 
	C718.457153,866.896790 718.046570,877.142395 714.666260,887.518066 
M672.928040,852.535767 
	C672.928040,866.067139 672.928040,879.598511 672.928040,893.118347 
	C685.119995,893.063477 691.759277,887.897705 693.075562,876.719666 
	C693.840332,870.224792 693.673950,863.439148 692.712463,856.964600 
	C691.262817,847.202209 682.584106,841.703552 672.928040,843.674194 
	C672.928040,846.260559 672.928040,848.904297 672.928040,852.535767 
z"/>
<path fill="#EBECEC" opacity="1.000000" stroke="none" 
	d="
M593.324951,894.984619 
	C596.872314,894.599243 600.346436,894.921082 603.015564,893.607361 
	C605.477966,892.395569 608.141907,889.704590 608.799438,887.167969 
	C609.728516,883.583618 607.498230,880.077209 603.679260,879.128967 
	C597.922913,877.699768 591.993469,876.967407 585.693726,875.860901 
	C585.693726,871.217468 585.693726,866.156494 585.693726,860.876953 
	C589.743347,860.268372 593.824890,859.811829 597.829773,858.984619 
	C599.732117,858.591675 602.133545,857.973206 603.159607,856.598938 
	C604.699402,854.536621 606.524841,851.275696 605.860596,849.335144 
	C605.020325,846.880188 602.102539,844.191223 599.550171,843.463013 
	C594.128296,841.916016 588.692139,843.248901 583.844910,846.351379 
	C582.180603,847.416565 580.526611,848.498047 578.541077,849.783691 
	C574.804260,845.271484 571.140564,840.847595 567.230103,836.125732 
	C573.273865,830.532532 580.111755,827.255981 587.639160,825.857788 
	C599.204834,823.709351 610.615540,824.359192 620.698547,831.249390 
	C632.089783,839.033386 633.661499,857.133667 619.833069,864.404602 
	C618.097656,865.317078 616.479248,866.452087 614.486267,867.681702 
	C616.425171,868.592102 618.079407,869.326416 619.696594,870.134827 
	C635.247925,877.908691 637.017090,895.763916 623.144409,906.106140 
	C607.230713,917.969971 576.215942,915.435730 565.075256,901.300720 
	C568.400330,896.640442 571.764954,891.924744 574.551208,888.019653 
	C581.020813,890.473206 586.960754,892.725891 593.324951,894.984619 
z"/>
<path fill="#97AAAE" opacity="1.000000" stroke="none" 
	d="
M317.378113,462.112610 
	C304.715118,467.702576 292.354034,473.112488 279.966614,478.461426 
	C278.327820,479.169067 276.554871,479.565948 274.453247,480.093903 
	C280.821777,476.058258 287.490143,471.872375 294.356781,468.041931 
	C319.190613,454.188690 344.040314,440.361847 369.001587,426.740448 
	C375.367188,423.266754 382.166199,420.587311 388.966187,417.233337 
	C395.548706,414.302948 401.931122,411.682220 408.681396,409.032898 
	C405.104218,411.684082 401.320557,414.647614 397.187927,416.997467 
	C370.725220,432.044586 344.185944,446.956940 317.378113,462.112610 
z"/>
<path fill="#97AAAE" opacity="1.000000" stroke="none" 
	d="
M272.887390,480.460510 
	C271.100464,481.637360 268.971100,482.848267 266.481873,484.074463 
	C268.262970,482.891357 270.403961,481.692932 272.887390,480.460510 
z"/>
<path fill="#01ABB3" opacity="1.000000" stroke="none" 
	d="
M900.626831,397.444702 
	C900.500366,397.631500 900.157898,397.810913 899.628906,398.047058 
	C899.765198,397.881622 900.088074,397.659454 900.626831,397.444702 
z"/>
<path fill="#B6E4FC" opacity="1.000000" stroke="none" 
	d="
M605.055786,514.846863 
	C597.222107,510.781982 589.292419,506.890747 581.572937,502.619476 
	C559.105408,490.187775 536.720337,477.606995 514.308899,465.074005 
	C512.595520,464.115875 511.046936,462.635712 509.220856,462.143585 
	C497.975037,459.112793 495.952637,451.376434 496.807739,440.892395 
	C497.669800,430.322784 496.992889,419.627686 496.975647,408.522034 
	C496.971649,387.475098 497.261841,366.887939 496.835358,346.315613 
	C496.693329,339.464508 497.444275,334.051361 505.218811,331.234558 
	C511.939911,328.533234 518.094971,326.191711 524.135254,323.584290 
	C533.051147,319.735504 541.885376,315.697510 550.940979,311.656830 
	C561.548828,328.256409 571.783997,344.366150 582.117859,360.412323 
	C589.660645,372.124481 597.333496,383.752869 604.981567,395.858307 
	C605.028442,435.814301 605.042114,475.330566 605.055786,514.846863 
z"/>
<path fill="#3A3F47" opacity="1.000000" stroke="none" 
	d="
M604.948303,395.418640 
	C597.333496,383.752869 589.660645,372.124481 582.117859,360.412323 
	C571.783997,344.366150 561.548828,328.256409 550.940979,311.656830 
	C541.885376,315.697510 533.051147,319.735504 524.135254,323.584290 
	C518.094971,326.191711 511.939911,328.533234 505.448914,330.975952 
	C555.442688,303.243408 604.246155,272.468536 658.900208,251.990143 
	C665.429443,262.128937 672.164795,272.555023 678.866882,283.002380 
	C689.354309,299.350708 699.844971,315.697266 710.236877,332.106232 
	C710.936646,333.211212 710.818848,334.833954 710.560669,336.591675 
	C675.009399,356.451233 639.978882,375.934937 604.948303,395.418640 
z"/>
<path fill="#FEFFFF" opacity="1.000000" stroke="none" 
	d="
M604.981567,395.858337 
	C639.978882,375.934937 675.009399,356.451233 710.378174,336.889343 
	C711.386353,338.358063 712.632935,339.902679 712.639099,341.452209 
	C712.722046,362.249481 712.694641,383.047821 712.565186,403.845062 
	C712.460938,420.591797 712.181396,437.337433 712.041382,454.545258 
	C706.796570,458.240906 701.590759,461.655884 696.166504,464.678833 
	C666.060059,481.457458 635.900513,498.140747 605.407471,514.851807 
	C605.042114,475.330566 605.028442,435.814301 604.981567,395.858337 
z"/>
<path fill="#97AAAE" opacity="1.000000" stroke="none" 
	d="
M412.153687,407.989502 
	C411.609222,408.425934 410.671661,408.855621 409.354309,409.162720 
	C409.903198,408.687714 410.831848,408.335236 412.153687,407.989502 
z"/>
<path fill="#393E46" opacity="1.000000" stroke="none" 
	d="
M502.763062,849.158936 
	C502.706390,849.682495 502.636017,849.970093 502.413513,850.879517 
	C502.413513,849.527161 502.413513,848.799927 502.413513,847.717468 
	C502.590790,848.353821 502.670074,848.638428 502.763062,849.158936 
z"/>
<path fill="#3A3F47" opacity="1.000000" stroke="none" 
	d="
M672.928040,852.041870 
	C672.928040,848.904297 672.928040,846.260559 672.928040,843.674194 
	C682.584106,841.703552 691.262817,847.202209 692.712463,856.964600 
	C693.673950,863.439148 693.840332,870.224792 693.075562,876.719666 
	C691.759277,887.897705 685.119995,893.063477 672.928040,893.118347 
	C672.928040,879.598511 672.928040,866.067139 672.928040,852.041870 
z"/>
</svg>